<svg xmlns="http://www.w3.org/2000/svg" width="1200" height="1500" viewBox="0 0 1200 1500" role="img" aria-label="">
  <defs>
    
  <pattern id="weave-massar-al-fajr" width="7" height="7" patternUnits="userSpaceOnUse" patternTransform="rotate(38)">
    <rect width="7" height="7" fill="#3d4d6b"/>
    <line x1="0" y1="0" x2="0" y2="7" stroke="#4a5b7c" stroke-width="1" opacity="0.5"/>
    <line x1="3.5" y1="0" x2="3.5" y2="7" stroke="#31405c" stroke-width="0.7" opacity="0.55"/>
  </pattern>
    <linearGradient id="sheen-massar-al-fajr" x1="0" y1="0" x2="1" y2="1">
      <stop offset="0" stop-color="#ffffff" stop-opacity="0.10"/>
      <stop offset="0.5" stop-color="#ffffff" stop-opacity="0"/>
      <stop offset="1" stop-color="#000000" stop-opacity="0.22"/>
    </linearGradient>
    <radialGradient id="vign-massar-al-fajr" cx="0.5" cy="0.34" r="0.95">
      <stop offset="0" stop-color="#232c47"/>
      <stop offset="1" stop-color="#151b2c"/>
    </radialGradient>
    <clipPath id="tri-massar-al-fajr">
      <path d="M110,320 L1090,320 L600,1330 Z"/>
    </clipPath>
  </defs>
  <rect width="1200" height="1500" fill="url(#vign-massar-al-fajr)"/>
  <ellipse cx="600" cy="1250" rx="430" ry="70" fill="#000000" opacity="0.30"/>
  <path d="M150,290 L1120,340 L640,1360 Z" fill="#31405c" opacity="0.85"/>
  <g clip-path="url(#tri-massar-al-fajr)">
    <rect x="60" y="270" width="1080" height="1120" fill="url(#weave-massar-al-fajr)"/>
    <rect x="60" y="270" width="1080" height="1120" fill="url(#sheen-massar-al-fajr)"/>
    <line x1="60" y1="390.9" x2="1140" y2="390.9" stroke="#ede6d8" stroke-width="1.4" opacity="0.85"/><line x1="60" y1="384.9" x2="1140" y2="384.9" stroke="#ede6d8" stroke-width="0.8" opacity="0.5"/><g transform="translate(140,430)"><g transform="scale(1.15)">
        <path d="M-24,-18 L-24,18 M-12,-18 L-12,18 M0,-18 L0,18 M12,-18 L12,18 M24,-18 L24,18"
          stroke="#ede6d8" stroke-width="2.2"/>
        <circle cx="-18" cy="0" r="2" fill="#a8c2e8"/><circle cx="-6" cy="0" r="2" fill="#a8c2e8"/>
        <circle cx="6" cy="0" r="2" fill="#a8c2e8"/><circle cx="18" cy="0" r="2" fill="#a8c2e8"/></g></g><g transform="translate(232,430)"><g transform="scale(1.15)">
        <path d="M-24,-18 L-24,18 M-12,-18 L-12,18 M0,-18 L0,18 M12,-18 L12,18 M24,-18 L24,18"
          stroke="#ede6d8" stroke-width="2.2"/>
        <circle cx="-18" cy="0" r="2" fill="#a8c2e8"/><circle cx="-6" cy="0" r="2" fill="#a8c2e8"/>
        <circle cx="6" cy="0" r="2" fill="#a8c2e8"/><circle cx="18" cy="0" r="2" fill="#a8c2e8"/></g></g><g transform="translate(324,430)"><g transform="scale(1.15)">
        <path d="M-24,-18 L-24,18 M-12,-18 L-12,18 M0,-18 L0,18 M12,-18 L12,18 M24,-18 L24,18"
          stroke="#ede6d8" stroke-width="2.2"/>
        <circle cx="-18" cy="0" r="2" fill="#a8c2e8"/><circle cx="-6" cy="0" r="2" fill="#a8c2e8"/>
        <circle cx="6" cy="0" r="2" fill="#a8c2e8"/><circle cx="18" cy="0" r="2" fill="#a8c2e8"/></g></g><g transform="translate(416,430)"><g transform="scale(1.15)">
        <path d="M-24,-18 L-24,18 M-12,-18 L-12,18 M0,-18 L0,18 M12,-18 L12,18 M24,-18 L24,18"
          stroke="#ede6d8" stroke-width="2.2"/>
        <circle cx="-18" cy="0" r="2" fill="#a8c2e8"/><circle cx="-6" cy="0" r="2" fill="#a8c2e8"/>
        <circle cx="6" cy="0" r="2" fill="#a8c2e8"/><circle cx="18" cy="0" r="2" fill="#a8c2e8"/></g></g><g transform="translate(508,430)"><g transform="scale(1.15)">
        <path d="M-24,-18 L-24,18 M-12,-18 L-12,18 M0,-18 L0,18 M12,-18 L12,18 M24,-18 L24,18"
          stroke="#ede6d8" stroke-width="2.2"/>
        <circle cx="-18" cy="0" r="2" fill="#a8c2e8"/><circle cx="-6" cy="0" r="2" fill="#a8c2e8"/>
        <circle cx="6" cy="0" r="2" fill="#a8c2e8"/><circle cx="18" cy="0" r="2" fill="#a8c2e8"/></g></g><g transform="translate(600,430)"><g transform="scale(1.15)">
        <path d="M-24,-18 L-24,18 M-12,-18 L-12,18 M0,-18 L0,18 M12,-18 L12,18 M24,-18 L24,18"
          stroke="#ede6d8" stroke-width="2.2"/>
        <circle cx="-18" cy="0" r="2" fill="#a8c2e8"/><circle cx="-6" cy="0" r="2" fill="#a8c2e8"/>
        <circle cx="6" cy="0" r="2" fill="#a8c2e8"/><circle cx="18" cy="0" r="2" fill="#a8c2e8"/></g></g><g transform="translate(692,430)"><g transform="scale(1.15)">
        <path d="M-24,-18 L-24,18 M-12,-18 L-12,18 M0,-18 L0,18 M12,-18 L12,18 M24,-18 L24,18"
          stroke="#ede6d8" stroke-width="2.2"/>
        <circle cx="-18" cy="0" r="2" fill="#a8c2e8"/><circle cx="-6" cy="0" r="2" fill="#a8c2e8"/>
        <circle cx="6" cy="0" r="2" fill="#a8c2e8"/><circle cx="18" cy="0" r="2" fill="#a8c2e8"/></g></g><g transform="translate(784,430)"><g transform="scale(1.15)">
        <path d="M-24,-18 L-24,18 M-12,-18 L-12,18 M0,-18 L0,18 M12,-18 L12,18 M24,-18 L24,18"
          stroke="#ede6d8" stroke-width="2.2"/>
        <circle cx="-18" cy="0" r="2" fill="#a8c2e8"/><circle cx="-6" cy="0" r="2" fill="#a8c2e8"/>
        <circle cx="6" cy="0" r="2" fill="#a8c2e8"/><circle cx="18" cy="0" r="2" fill="#a8c2e8"/></g></g><g transform="translate(876,430)"><g transform="scale(1.15)">
        <path d="M-24,-18 L-24,18 M-12,-18 L-12,18 M0,-18 L0,18 M12,-18 L12,18 M24,-18 L24,18"
          stroke="#ede6d8" stroke-width="2.2"/>
        <circle cx="-18" cy="0" r="2" fill="#a8c2e8"/><circle cx="-6" cy="0" r="2" fill="#a8c2e8"/>
        <circle cx="6" cy="0" r="2" fill="#a8c2e8"/><circle cx="18" cy="0" r="2" fill="#a8c2e8"/></g></g><g transform="translate(968,430)"><g transform="scale(1.15)">
        <path d="M-24,-18 L-24,18 M-12,-18 L-12,18 M0,-18 L0,18 M12,-18 L12,18 M24,-18 L24,18"
          stroke="#ede6d8" stroke-width="2.2"/>
        <circle cx="-18" cy="0" r="2" fill="#a8c2e8"/><circle cx="-6" cy="0" r="2" fill="#a8c2e8"/>
        <circle cx="6" cy="0" r="2" fill="#a8c2e8"/><circle cx="18" cy="0" r="2" fill="#a8c2e8"/></g></g><g transform="translate(1060,430)"><g transform="scale(1.15)">
        <path d="M-24,-18 L-24,18 M-12,-18 L-12,18 M0,-18 L0,18 M12,-18 L12,18 M24,-18 L24,18"
          stroke="#ede6d8" stroke-width="2.2"/>
        <circle cx="-18" cy="0" r="2" fill="#a8c2e8"/><circle cx="-6" cy="0" r="2" fill="#a8c2e8"/>
        <circle cx="6" cy="0" r="2" fill="#a8c2e8"/><circle cx="18" cy="0" r="2" fill="#a8c2e8"/></g></g><line x1="60" y1="469.1" x2="1140" y2="469.1" stroke="#ede6d8" stroke-width="1.4" opacity="0.85"/><line x1="60" y1="475.1" x2="1140" y2="475.1" stroke="#ede6d8" stroke-width="0.8" opacity="0.5"/>
    <line x1="60" y1="541.3" x2="1140" y2="541.3" stroke="#ede6d8" stroke-width="1.4" opacity="0.85"/><line x1="60" y1="535.3" x2="1140" y2="535.3" stroke="#ede6d8" stroke-width="0.8" opacity="0.5"/><g transform="translate(140,560)"><g transform="scale(0.55)">
        <path d="M-24,-18 L-24,18 M-12,-18 L-12,18 M0,-18 L0,18 M12,-18 L12,18 M24,-18 L24,18"
          stroke="#ede6d8" stroke-width="2.2"/>
        <circle cx="-18" cy="0" r="2" fill="#a8c2e8"/><circle cx="-6" cy="0" r="2" fill="#a8c2e8"/>
        <circle cx="6" cy="0" r="2" fill="#a8c2e8"/><circle cx="18" cy="0" r="2" fill="#a8c2e8"/></g></g><g transform="translate(232,560)"><g transform="scale(0.55)">
        <path d="M-24,-18 L-24,18 M-12,-18 L-12,18 M0,-18 L0,18 M12,-18 L12,18 M24,-18 L24,18"
          stroke="#ede6d8" stroke-width="2.2"/>
        <circle cx="-18" cy="0" r="2" fill="#a8c2e8"/><circle cx="-6" cy="0" r="2" fill="#a8c2e8"/>
        <circle cx="6" cy="0" r="2" fill="#a8c2e8"/><circle cx="18" cy="0" r="2" fill="#a8c2e8"/></g></g><g transform="translate(324,560)"><g transform="scale(0.55)">
        <path d="M-24,-18 L-24,18 M-12,-18 L-12,18 M0,-18 L0,18 M12,-18 L12,18 M24,-18 L24,18"
          stroke="#ede6d8" stroke-width="2.2"/>
        <circle cx="-18" cy="0" r="2" fill="#a8c2e8"/><circle cx="-6" cy="0" r="2" fill="#a8c2e8"/>
        <circle cx="6" cy="0" r="2" fill="#a8c2e8"/><circle cx="18" cy="0" r="2" fill="#a8c2e8"/></g></g><g transform="translate(416,560)"><g transform="scale(0.55)">
        <path d="M-24,-18 L-24,18 M-12,-18 L-12,18 M0,-18 L0,18 M12,-18 L12,18 M24,-18 L24,18"
          stroke="#ede6d8" stroke-width="2.2"/>
        <circle cx="-18" cy="0" r="2" fill="#a8c2e8"/><circle cx="-6" cy="0" r="2" fill="#a8c2e8"/>
        <circle cx="6" cy="0" r="2" fill="#a8c2e8"/><circle cx="18" cy="0" r="2" fill="#a8c2e8"/></g></g><g transform="translate(508,560)"><g transform="scale(0.55)">
        <path d="M-24,-18 L-24,18 M-12,-18 L-12,18 M0,-18 L0,18 M12,-18 L12,18 M24,-18 L24,18"
          stroke="#ede6d8" stroke-width="2.2"/>
        <circle cx="-18" cy="0" r="2" fill="#a8c2e8"/><circle cx="-6" cy="0" r="2" fill="#a8c2e8"/>
        <circle cx="6" cy="0" r="2" fill="#a8c2e8"/><circle cx="18" cy="0" r="2" fill="#a8c2e8"/></g></g><g transform="translate(600,560)"><g transform="scale(0.55)">
        <path d="M-24,-18 L-24,18 M-12,-18 L-12,18 M0,-18 L0,18 M12,-18 L12,18 M24,-18 L24,18"
          stroke="#ede6d8" stroke-width="2.2"/>
        <circle cx="-18" cy="0" r="2" fill="#a8c2e8"/><circle cx="-6" cy="0" r="2" fill="#a8c2e8"/>
        <circle cx="6" cy="0" r="2" fill="#a8c2e8"/><circle cx="18" cy="0" r="2" fill="#a8c2e8"/></g></g><g transform="translate(692,560)"><g transform="scale(0.55)">
        <path d="M-24,-18 L-24,18 M-12,-18 L-12,18 M0,-18 L0,18 M12,-18 L12,18 M24,-18 L24,18"
          stroke="#ede6d8" stroke-width="2.2"/>
        <circle cx="-18" cy="0" r="2" fill="#a8c2e8"/><circle cx="-6" cy="0" r="2" fill="#a8c2e8"/>
        <circle cx="6" cy="0" r="2" fill="#a8c2e8"/><circle cx="18" cy="0" r="2" fill="#a8c2e8"/></g></g><g transform="translate(784,560)"><g transform="scale(0.55)">
        <path d="M-24,-18 L-24,18 M-12,-18 L-12,18 M0,-18 L0,18 M12,-18 L12,18 M24,-18 L24,18"
          stroke="#ede6d8" stroke-width="2.2"/>
        <circle cx="-18" cy="0" r="2" fill="#a8c2e8"/><circle cx="-6" cy="0" r="2" fill="#a8c2e8"/>
        <circle cx="6" cy="0" r="2" fill="#a8c2e8"/><circle cx="18" cy="0" r="2" fill="#a8c2e8"/></g></g><g transform="translate(876,560)"><g transform="scale(0.55)">
        <path d="M-24,-18 L-24,18 M-12,-18 L-12,18 M0,-18 L0,18 M12,-18 L12,18 M24,-18 L24,18"
          stroke="#ede6d8" stroke-width="2.2"/>
        <circle cx="-18" cy="0" r="2" fill="#a8c2e8"/><circle cx="-6" cy="0" r="2" fill="#a8c2e8"/>
        <circle cx="6" cy="0" r="2" fill="#a8c2e8"/><circle cx="18" cy="0" r="2" fill="#a8c2e8"/></g></g><g transform="translate(968,560)"><g transform="scale(0.55)">
        <path d="M-24,-18 L-24,18 M-12,-18 L-12,18 M0,-18 L0,18 M12,-18 L12,18 M24,-18 L24,18"
          stroke="#ede6d8" stroke-width="2.2"/>
        <circle cx="-18" cy="0" r="2" fill="#a8c2e8"/><circle cx="-6" cy="0" r="2" fill="#a8c2e8"/>
        <circle cx="6" cy="0" r="2" fill="#a8c2e8"/><circle cx="18" cy="0" r="2" fill="#a8c2e8"/></g></g><g transform="translate(1060,560)"><g transform="scale(0.55)">
        <path d="M-24,-18 L-24,18 M-12,-18 L-12,18 M0,-18 L0,18 M12,-18 L12,18 M24,-18 L24,18"
          stroke="#ede6d8" stroke-width="2.2"/>
        <circle cx="-18" cy="0" r="2" fill="#a8c2e8"/><circle cx="-6" cy="0" r="2" fill="#a8c2e8"/>
        <circle cx="6" cy="0" r="2" fill="#a8c2e8"/><circle cx="18" cy="0" r="2" fill="#a8c2e8"/></g></g><line x1="60" y1="578.7" x2="1140" y2="578.7" stroke="#ede6d8" stroke-width="1.4" opacity="0.85"/><line x1="60" y1="584.7" x2="1140" y2="584.7" stroke="#ede6d8" stroke-width="0.8" opacity="0.5"/>
    <line x1="60" y1="320" x2="1140" y2="320" stroke="#4a5b7c" stroke-width="3" opacity="0.7"/>
  </g>
  <path d="M110,320 L1090,320 L600,1330 Z" fill="none" stroke="#31405c" stroke-width="3" opacity="0.8"/>
  <g transform="translate(600,1408)" opacity="0.5">
    <path d="M0,-14 L11,0 L0,14 L-11,0 Z" fill="none" stroke="#6b93d6" stroke-width="1.6"/>
    <circle cx="0" cy="0" r="2" fill="#6b93d6"/>
  </g>
</svg>